<mxfile host="app.diagrams.net" agent="Mozilla/5.0 (Windows NT 10.0; Win64; x64) AppleWebKit/537.36 (KHTML, like Gecko) Chrome/131.0.0.0 Safari/537.36" version="24.8.6">
  <diagram name="Страница — 1" id="SHjPVZukzDQoMjpflndh">
    <mxGraphModel dx="1235" dy="3924" grid="1" gridSize="10" guides="1" tooltips="1" connect="1" arrows="1" fold="1" page="1" pageScale="1" pageWidth="2339" pageHeight="3300" math="0" shadow="0">
      <root>
        <mxCell id="0" />
        <mxCell id="1" parent="0" />
        <mxCell id="HxAyWMAIq7WzyqR53muz-2" style="edgeStyle=orthogonalEdgeStyle;rounded=0;orthogonalLoop=1;jettySize=auto;html=1;" parent="1" source="HxAyWMAIq7WzyqR53muz-1" target="HxAyWMAIq7WzyqR53muz-3" edge="1">
          <mxGeometry relative="1" as="geometry">
            <mxPoint x="1070" y="-3220" as="targetPoint" />
          </mxGeometry>
        </mxCell>
        <mxCell id="HxAyWMAIq7WzyqR53muz-1" value="Start" style="ellipse;whiteSpace=wrap;html=1;" parent="1" vertex="1">
          <mxGeometry x="1010" y="-3290" width="120" height="40" as="geometry" />
        </mxCell>
        <mxCell id="HxAyWMAIq7WzyqR53muz-4" style="edgeStyle=orthogonalEdgeStyle;rounded=0;orthogonalLoop=1;jettySize=auto;html=1;" parent="1" source="HxAyWMAIq7WzyqR53muz-3" target="HxAyWMAIq7WzyqR53muz-6" edge="1">
          <mxGeometry relative="1" as="geometry">
            <mxPoint x="1070" y="-3150" as="targetPoint" />
          </mxGeometry>
        </mxCell>
        <mxCell id="HxAyWMAIq7WzyqR53muz-3" value="Create structure Figure" style="rounded=0;whiteSpace=wrap;html=1;" parent="1" vertex="1">
          <mxGeometry x="1010" y="-3220" width="120" height="40" as="geometry" />
        </mxCell>
        <mxCell id="HxAyWMAIq7WzyqR53muz-7" style="edgeStyle=orthogonalEdgeStyle;rounded=0;orthogonalLoop=1;jettySize=auto;html=1;" parent="1" source="HxAyWMAIq7WzyqR53muz-6" target="HxAyWMAIq7WzyqR53muz-8" edge="1">
          <mxGeometry relative="1" as="geometry">
            <mxPoint x="1070" y="-3080" as="targetPoint" />
          </mxGeometry>
        </mxCell>
        <mxCell id="HxAyWMAIq7WzyqR53muz-6" value="&lt;div&gt;&amp;nbsp;char name;&lt;/div&gt;&lt;div&gt;&amp;nbsp; &amp;nbsp; int x, y;&lt;/div&gt;" style="rounded=0;whiteSpace=wrap;html=1;" parent="1" vertex="1">
          <mxGeometry x="1010" y="-3150" width="120" height="40" as="geometry" />
        </mxCell>
        <mxCell id="HxAyWMAIq7WzyqR53muz-9" style="edgeStyle=orthogonalEdgeStyle;rounded=0;orthogonalLoop=1;jettySize=auto;html=1;" parent="1" source="HxAyWMAIq7WzyqR53muz-8" target="HxAyWMAIq7WzyqR53muz-10" edge="1">
          <mxGeometry relative="1" as="geometry">
            <mxPoint x="1070" y="-3000" as="targetPoint" />
          </mxGeometry>
        </mxCell>
        <mxCell id="HxAyWMAIq7WzyqR53muz-8" value="const char F[] = {&#39;P&#39;, &#39;R&#39;, &#39;N&#39;, &#39;B&#39;, &#39;K&#39;, &#39;Q&#39;, &#39;X&#39;, &#39;O&#39;}" style="rounded=0;whiteSpace=wrap;html=1;" parent="1" vertex="1">
          <mxGeometry x="965" y="-3080" width="210" height="40" as="geometry" />
        </mxCell>
        <mxCell id="HxAyWMAIq7WzyqR53muz-11" style="edgeStyle=orthogonalEdgeStyle;rounded=0;orthogonalLoop=1;jettySize=auto;html=1;" parent="1" source="HxAyWMAIq7WzyqR53muz-10" target="HxAyWMAIq7WzyqR53muz-12" edge="1">
          <mxGeometry relative="1" as="geometry">
            <mxPoint x="1070" y="-2940" as="targetPoint" />
          </mxGeometry>
        </mxCell>
        <mxCell id="HxAyWMAIq7WzyqR53muz-10" value="&lt;div&gt;&amp;nbsp;Figure figures[64];&lt;/div&gt;&lt;div&gt;&amp;nbsp; &amp;nbsp; int figCount = 0;&lt;/div&gt;" style="rounded=0;whiteSpace=wrap;html=1;" parent="1" vertex="1">
          <mxGeometry x="1010" y="-3010" width="120" height="40" as="geometry" />
        </mxCell>
        <mxCell id="HxAyWMAIq7WzyqR53muz-13" style="edgeStyle=orthogonalEdgeStyle;rounded=0;orthogonalLoop=1;jettySize=auto;html=1;" parent="1" source="HxAyWMAIq7WzyqR53muz-12" target="HxAyWMAIq7WzyqR53muz-14" edge="1">
          <mxGeometry relative="1" as="geometry">
            <mxPoint x="1070" y="-2880" as="targetPoint" />
          </mxGeometry>
        </mxCell>
        <mxCell id="HxAyWMAIq7WzyqR53muz-12" value="int i = 0" style="rounded=0;whiteSpace=wrap;html=1;" parent="1" vertex="1">
          <mxGeometry x="1030" y="-2940" width="80" height="30" as="geometry" />
        </mxCell>
        <mxCell id="HxAyWMAIq7WzyqR53muz-15" style="edgeStyle=orthogonalEdgeStyle;rounded=0;orthogonalLoop=1;jettySize=auto;html=1;exitX=1;exitY=0.5;exitDx=0;exitDy=0;" parent="1" source="HxAyWMAIq7WzyqR53muz-14" target="HxAyWMAIq7WzyqR53muz-16" edge="1">
          <mxGeometry relative="1" as="geometry">
            <mxPoint x="1130" y="-2820" as="targetPoint" />
          </mxGeometry>
        </mxCell>
        <mxCell id="HxAyWMAIq7WzyqR53muz-27" value="True" style="edgeLabel;html=1;align=center;verticalAlign=middle;resizable=0;points=[];" parent="HxAyWMAIq7WzyqR53muz-15" vertex="1" connectable="0">
          <mxGeometry x="-0.401" y="3" relative="1" as="geometry">
            <mxPoint as="offset" />
          </mxGeometry>
        </mxCell>
        <mxCell id="HxAyWMAIq7WzyqR53muz-39" style="edgeStyle=orthogonalEdgeStyle;rounded=0;orthogonalLoop=1;jettySize=auto;html=1;exitX=0;exitY=0.5;exitDx=0;exitDy=0;entryX=0.5;entryY=0;entryDx=0;entryDy=0;" parent="1" source="HxAyWMAIq7WzyqR53muz-14" target="HxAyWMAIq7WzyqR53muz-42" edge="1">
          <mxGeometry relative="1" as="geometry">
            <mxPoint x="690" y="-2820" as="targetPoint" />
          </mxGeometry>
        </mxCell>
        <mxCell id="HxAyWMAIq7WzyqR53muz-40" value="False" style="edgeLabel;html=1;align=center;verticalAlign=middle;resizable=0;points=[];" parent="HxAyWMAIq7WzyqR53muz-39" vertex="1" connectable="0">
          <mxGeometry x="-0.726" y="-3" relative="1" as="geometry">
            <mxPoint x="1" as="offset" />
          </mxGeometry>
        </mxCell>
        <mxCell id="HxAyWMAIq7WzyqR53muz-14" value="i &amp;lt; 8" style="rhombus;whiteSpace=wrap;html=1;" parent="1" vertex="1">
          <mxGeometry x="1030" y="-2880" width="80" height="40" as="geometry" />
        </mxCell>
        <mxCell id="HxAyWMAIq7WzyqR53muz-17" style="edgeStyle=orthogonalEdgeStyle;rounded=0;orthogonalLoop=1;jettySize=auto;html=1;" parent="1" source="HxAyWMAIq7WzyqR53muz-16" target="HxAyWMAIq7WzyqR53muz-18" edge="1">
          <mxGeometry relative="1" as="geometry">
            <mxPoint x="1155" y="-2770" as="targetPoint" />
          </mxGeometry>
        </mxCell>
        <mxCell id="HxAyWMAIq7WzyqR53muz-16" value="string row;" style="rounded=0;whiteSpace=wrap;html=1;" parent="1" vertex="1">
          <mxGeometry x="1110" y="-2840" width="70" height="30" as="geometry" />
        </mxCell>
        <mxCell id="HxAyWMAIq7WzyqR53muz-19" style="edgeStyle=orthogonalEdgeStyle;rounded=0;orthogonalLoop=1;jettySize=auto;html=1;" parent="1" source="HxAyWMAIq7WzyqR53muz-18" target="HxAyWMAIq7WzyqR53muz-20" edge="1">
          <mxGeometry relative="1" as="geometry">
            <mxPoint x="1145" y="-2730" as="targetPoint" />
          </mxGeometry>
        </mxCell>
        <mxCell id="HxAyWMAIq7WzyqR53muz-18" value="cin &amp;gt;&amp;gt; row;" style="shape=parallelogram;perimeter=parallelogramPerimeter;whiteSpace=wrap;html=1;fixedSize=1;" parent="1" vertex="1">
          <mxGeometry x="1085" y="-2790" width="120" height="30" as="geometry" />
        </mxCell>
        <mxCell id="HxAyWMAIq7WzyqR53muz-21" style="edgeStyle=orthogonalEdgeStyle;rounded=0;orthogonalLoop=1;jettySize=auto;html=1;" parent="1" source="HxAyWMAIq7WzyqR53muz-20" target="HxAyWMAIq7WzyqR53muz-22" edge="1">
          <mxGeometry relative="1" as="geometry">
            <mxPoint x="1145" y="-2680" as="targetPoint" />
          </mxGeometry>
        </mxCell>
        <mxCell id="HxAyWMAIq7WzyqR53muz-20" value="int j = 0" style="rounded=0;whiteSpace=wrap;html=1;" parent="1" vertex="1">
          <mxGeometry x="1107.5" y="-2730" width="75" height="20" as="geometry" />
        </mxCell>
        <mxCell id="HxAyWMAIq7WzyqR53muz-23" style="edgeStyle=orthogonalEdgeStyle;rounded=0;orthogonalLoop=1;jettySize=auto;html=1;entryX=0.5;entryY=0;entryDx=0;entryDy=0;" parent="1" source="HxAyWMAIq7WzyqR53muz-22" target="HxAyWMAIq7WzyqR53muz-24" edge="1">
          <mxGeometry relative="1" as="geometry">
            <mxPoint x="1050" y="-2620" as="targetPoint" />
          </mxGeometry>
        </mxCell>
        <mxCell id="HxAyWMAIq7WzyqR53muz-28" value="True" style="edgeLabel;html=1;align=center;verticalAlign=middle;resizable=0;points=[];" parent="HxAyWMAIq7WzyqR53muz-23" vertex="1" connectable="0">
          <mxGeometry x="-0.4237" relative="1" as="geometry">
            <mxPoint as="offset" />
          </mxGeometry>
        </mxCell>
        <mxCell id="HxAyWMAIq7WzyqR53muz-34" style="edgeStyle=orthogonalEdgeStyle;rounded=0;orthogonalLoop=1;jettySize=auto;html=1;" parent="1" source="HxAyWMAIq7WzyqR53muz-22" target="HxAyWMAIq7WzyqR53muz-35" edge="1">
          <mxGeometry relative="1" as="geometry">
            <mxPoint x="1220" y="-2600" as="targetPoint" />
            <Array as="points">
              <mxPoint x="1210" y="-2660" />
              <mxPoint x="1210" y="-2620" />
              <mxPoint x="1230" y="-2620" />
            </Array>
          </mxGeometry>
        </mxCell>
        <mxCell id="HxAyWMAIq7WzyqR53muz-37" value="False" style="edgeLabel;html=1;align=center;verticalAlign=middle;resizable=0;points=[];" parent="HxAyWMAIq7WzyqR53muz-34" vertex="1" connectable="0">
          <mxGeometry x="-0.1321" y="3" relative="1" as="geometry">
            <mxPoint as="offset" />
          </mxGeometry>
        </mxCell>
        <mxCell id="HxAyWMAIq7WzyqR53muz-22" value="j &amp;lt; row.size()" style="rhombus;whiteSpace=wrap;html=1;" parent="1" vertex="1">
          <mxGeometry x="1092.5" y="-2680" width="105" height="40" as="geometry" />
        </mxCell>
        <mxCell id="HxAyWMAIq7WzyqR53muz-25" style="edgeStyle=orthogonalEdgeStyle;rounded=0;orthogonalLoop=1;jettySize=auto;html=1;exitX=0;exitY=0.5;exitDx=0;exitDy=0;" parent="1" source="HxAyWMAIq7WzyqR53muz-24" target="HxAyWMAIq7WzyqR53muz-26" edge="1">
          <mxGeometry relative="1" as="geometry">
            <mxPoint x="960" y="-2580" as="targetPoint" />
          </mxGeometry>
        </mxCell>
        <mxCell id="HxAyWMAIq7WzyqR53muz-29" value="True" style="edgeLabel;html=1;align=center;verticalAlign=middle;resizable=0;points=[];" parent="HxAyWMAIq7WzyqR53muz-25" vertex="1" connectable="0">
          <mxGeometry x="0.2461" y="-3" relative="1" as="geometry">
            <mxPoint as="offset" />
          </mxGeometry>
        </mxCell>
        <mxCell id="HxAyWMAIq7WzyqR53muz-32" style="edgeStyle=orthogonalEdgeStyle;rounded=0;orthogonalLoop=1;jettySize=auto;html=1;entryX=0.5;entryY=0;entryDx=0;entryDy=0;exitX=1;exitY=0.5;exitDx=0;exitDy=0;" parent="1" source="HxAyWMAIq7WzyqR53muz-24" target="HxAyWMAIq7WzyqR53muz-31" edge="1">
          <mxGeometry relative="1" as="geometry">
            <Array as="points">
              <mxPoint x="1105" y="-2620" />
              <mxPoint x="1105" y="-2510" />
              <mxPoint x="1035" y="-2510" />
            </Array>
          </mxGeometry>
        </mxCell>
        <mxCell id="HxAyWMAIq7WzyqR53muz-33" value="False" style="edgeLabel;html=1;align=center;verticalAlign=middle;resizable=0;points=[];" parent="HxAyWMAIq7WzyqR53muz-32" vertex="1" connectable="0">
          <mxGeometry x="-0.6542" y="2" relative="1" as="geometry">
            <mxPoint as="offset" />
          </mxGeometry>
        </mxCell>
        <mxCell id="HxAyWMAIq7WzyqR53muz-24" value="row[j] != F[7]" style="rhombus;whiteSpace=wrap;html=1;" parent="1" vertex="1">
          <mxGeometry x="985" y="-2640" width="100" height="40" as="geometry" />
        </mxCell>
        <mxCell id="HxAyWMAIq7WzyqR53muz-30" style="edgeStyle=orthogonalEdgeStyle;rounded=0;orthogonalLoop=1;jettySize=auto;html=1;" parent="1" source="HxAyWMAIq7WzyqR53muz-26" target="HxAyWMAIq7WzyqR53muz-31" edge="1">
          <mxGeometry relative="1" as="geometry">
            <mxPoint x="960" y="-2500" as="targetPoint" />
          </mxGeometry>
        </mxCell>
        <mxCell id="HxAyWMAIq7WzyqR53muz-26" value="figures[figCount++] = {row[j], i + 1, j + 1}" style="rounded=0;whiteSpace=wrap;html=1;" parent="1" vertex="1">
          <mxGeometry x="900" y="-2590" width="120" height="50" as="geometry" />
        </mxCell>
        <mxCell id="HxAyWMAIq7WzyqR53muz-36" style="edgeStyle=orthogonalEdgeStyle;rounded=0;orthogonalLoop=1;jettySize=auto;html=1;" parent="1" source="HxAyWMAIq7WzyqR53muz-31" edge="1">
          <mxGeometry relative="1" as="geometry">
            <mxPoint x="1145" y="-2700" as="targetPoint" />
            <Array as="points">
              <mxPoint x="870" y="-2470" />
              <mxPoint x="870" y="-2700" />
              <mxPoint x="1108" y="-2700" />
            </Array>
          </mxGeometry>
        </mxCell>
        <mxCell id="HxAyWMAIq7WzyqR53muz-31" value="j++" style="rounded=0;whiteSpace=wrap;html=1;" parent="1" vertex="1">
          <mxGeometry x="1010" y="-2480" width="50" height="20" as="geometry" />
        </mxCell>
        <mxCell id="HxAyWMAIq7WzyqR53muz-38" style="edgeStyle=orthogonalEdgeStyle;rounded=0;orthogonalLoop=1;jettySize=auto;html=1;exitX=0.5;exitY=1;exitDx=0;exitDy=0;" parent="1" source="HxAyWMAIq7WzyqR53muz-35" edge="1">
          <mxGeometry relative="1" as="geometry">
            <mxPoint x="1070" y="-2900" as="targetPoint" />
            <Array as="points">
              <mxPoint x="1210" y="-2570" />
              <mxPoint x="1280" y="-2570" />
              <mxPoint x="1280" y="-2900" />
              <mxPoint x="1110" y="-2900" />
            </Array>
          </mxGeometry>
        </mxCell>
        <mxCell id="HxAyWMAIq7WzyqR53muz-35" value="i++" style="rounded=0;whiteSpace=wrap;html=1;" parent="1" vertex="1">
          <mxGeometry x="1180" y="-2620" width="60" height="30" as="geometry" />
        </mxCell>
        <mxCell id="HxAyWMAIq7WzyqR53muz-41" style="edgeStyle=orthogonalEdgeStyle;rounded=0;orthogonalLoop=1;jettySize=auto;html=1;" parent="1" source="HxAyWMAIq7WzyqR53muz-42" target="HxAyWMAIq7WzyqR53muz-43" edge="1">
          <mxGeometry relative="1" as="geometry">
            <mxPoint x="700" y="-2750" as="targetPoint" />
          </mxGeometry>
        </mxCell>
        <mxCell id="HxAyWMAIq7WzyqR53muz-42" value="int n" style="rounded=0;whiteSpace=wrap;html=1;" parent="1" vertex="1">
          <mxGeometry x="655" y="-2820" width="70" height="30" as="geometry" />
        </mxCell>
        <mxCell id="HxAyWMAIq7WzyqR53muz-44" style="edgeStyle=orthogonalEdgeStyle;rounded=0;orthogonalLoop=1;jettySize=auto;html=1;" parent="1" source="HxAyWMAIq7WzyqR53muz-43" target="HxAyWMAIq7WzyqR53muz-45" edge="1">
          <mxGeometry relative="1" as="geometry">
            <mxPoint x="690" y="-2720" as="targetPoint" />
          </mxGeometry>
        </mxCell>
        <mxCell id="HxAyWMAIq7WzyqR53muz-43" value="cin &amp;gt;&amp;gt; n" style="shape=parallelogram;perimeter=parallelogramPerimeter;whiteSpace=wrap;html=1;fixedSize=1;" parent="1" vertex="1">
          <mxGeometry x="630" y="-2770" width="120" height="30" as="geometry" />
        </mxCell>
        <mxCell id="HxAyWMAIq7WzyqR53muz-46" style="edgeStyle=orthogonalEdgeStyle;rounded=0;orthogonalLoop=1;jettySize=auto;html=1;" parent="1" source="HxAyWMAIq7WzyqR53muz-45" edge="1">
          <mxGeometry relative="1" as="geometry">
            <mxPoint x="690" y="-2660" as="targetPoint" />
            <Array as="points">
              <mxPoint x="690" y="-2660" />
              <mxPoint x="690" y="-2660" />
            </Array>
          </mxGeometry>
        </mxCell>
        <mxCell id="HxAyWMAIq7WzyqR53muz-45" value="string* results = new string [n]" style="rounded=0;whiteSpace=wrap;html=1;" parent="1" vertex="1">
          <mxGeometry x="630" y="-2720" width="120" height="40" as="geometry" />
        </mxCell>
        <mxCell id="HxAyWMAIq7WzyqR53muz-47" style="edgeStyle=orthogonalEdgeStyle;rounded=0;orthogonalLoop=1;jettySize=auto;html=1;" parent="1" source="HxAyWMAIq7WzyqR53muz-48" target="HxAyWMAIq7WzyqR53muz-49" edge="1">
          <mxGeometry relative="1" as="geometry">
            <mxPoint x="690" y="-2600" as="targetPoint" />
          </mxGeometry>
        </mxCell>
        <mxCell id="HxAyWMAIq7WzyqR53muz-48" value="int i = 0" style="rounded=0;whiteSpace=wrap;html=1;" parent="1" vertex="1">
          <mxGeometry x="650" y="-2660" width="80" height="30" as="geometry" />
        </mxCell>
        <mxCell id="HxAyWMAIq7WzyqR53muz-50" style="edgeStyle=orthogonalEdgeStyle;rounded=0;orthogonalLoop=1;jettySize=auto;html=1;entryX=0.5;entryY=0;entryDx=0;entryDy=0;entryPerimeter=0;" parent="1" source="HxAyWMAIq7WzyqR53muz-49" target="HxAyWMAIq7WzyqR53muz-51" edge="1">
          <mxGeometry relative="1" as="geometry">
            <mxPoint x="750" y="-2540" as="targetPoint" />
            <Array as="points">
              <mxPoint x="750" y="-2580" />
            </Array>
          </mxGeometry>
        </mxCell>
        <mxCell id="HxAyWMAIq7WzyqR53muz-145" value="True" style="edgeLabel;html=1;align=center;verticalAlign=middle;resizable=0;points=[];" parent="HxAyWMAIq7WzyqR53muz-50" vertex="1" connectable="0">
          <mxGeometry x="-0.4467" y="-3" relative="1" as="geometry">
            <mxPoint x="6" as="offset" />
          </mxGeometry>
        </mxCell>
        <mxCell id="HxAyWMAIq7WzyqR53muz-144" style="edgeStyle=orthogonalEdgeStyle;rounded=0;orthogonalLoop=1;jettySize=auto;html=1;entryX=0.5;entryY=0;entryDx=0;entryDy=0;" parent="1" source="HxAyWMAIq7WzyqR53muz-49" target="HxAyWMAIq7WzyqR53muz-148" edge="1">
          <mxGeometry relative="1" as="geometry">
            <mxPoint x="490" y="-2530" as="targetPoint" />
          </mxGeometry>
        </mxCell>
        <mxCell id="HxAyWMAIq7WzyqR53muz-162" value="False" style="edgeLabel;html=1;align=center;verticalAlign=middle;resizable=0;points=[];" parent="HxAyWMAIq7WzyqR53muz-144" vertex="1" connectable="0">
          <mxGeometry x="-0.2303" y="-3" relative="1" as="geometry">
            <mxPoint as="offset" />
          </mxGeometry>
        </mxCell>
        <mxCell id="HxAyWMAIq7WzyqR53muz-49" value="i &amp;lt; n" style="rhombus;whiteSpace=wrap;html=1;" parent="1" vertex="1">
          <mxGeometry x="650" y="-2600" width="80" height="40" as="geometry" />
        </mxCell>
        <mxCell id="HxAyWMAIq7WzyqR53muz-52" style="edgeStyle=orthogonalEdgeStyle;rounded=0;orthogonalLoop=1;jettySize=auto;html=1;exitX=0.5;exitY=1;exitDx=0;exitDy=0;" parent="1" source="HxAyWMAIq7WzyqR53muz-51" target="HxAyWMAIq7WzyqR53muz-53" edge="1">
          <mxGeometry relative="1" as="geometry">
            <mxPoint x="750" y="-2500" as="targetPoint" />
          </mxGeometry>
        </mxCell>
        <mxCell id="HxAyWMAIq7WzyqR53muz-51" value="&amp;nbsp;set&amp;lt;char&amp;gt; result" style="rounded=0;whiteSpace=wrap;html=1;" parent="1" vertex="1">
          <mxGeometry x="695" y="-2550" width="110" height="30" as="geometry" />
        </mxCell>
        <mxCell id="HxAyWMAIq7WzyqR53muz-54" style="edgeStyle=orthogonalEdgeStyle;rounded=0;orthogonalLoop=1;jettySize=auto;html=1;" parent="1" source="HxAyWMAIq7WzyqR53muz-53" target="HxAyWMAIq7WzyqR53muz-55" edge="1">
          <mxGeometry relative="1" as="geometry">
            <mxPoint x="750" y="-2460" as="targetPoint" />
          </mxGeometry>
        </mxCell>
        <mxCell id="HxAyWMAIq7WzyqR53muz-53" value="int x, y;" style="rounded=0;whiteSpace=wrap;html=1;" parent="1" vertex="1">
          <mxGeometry x="705" y="-2500" width="90" height="20" as="geometry" />
        </mxCell>
        <mxCell id="HxAyWMAIq7WzyqR53muz-56" style="edgeStyle=orthogonalEdgeStyle;rounded=0;orthogonalLoop=1;jettySize=auto;html=1;" parent="1" source="HxAyWMAIq7WzyqR53muz-55" target="HxAyWMAIq7WzyqR53muz-58" edge="1">
          <mxGeometry relative="1" as="geometry">
            <mxPoint x="750" y="-2410" as="targetPoint" />
          </mxGeometry>
        </mxCell>
        <mxCell id="HxAyWMAIq7WzyqR53muz-55" value="cin &amp;gt;&amp;gt; x &amp;gt;&amp;gt; y" style="shape=parallelogram;perimeter=parallelogramPerimeter;whiteSpace=wrap;html=1;fixedSize=1;" parent="1" vertex="1">
          <mxGeometry x="690" y="-2460" width="120" height="30" as="geometry" />
        </mxCell>
        <mxCell id="HxAyWMAIq7WzyqR53muz-77" style="edgeStyle=orthogonalEdgeStyle;rounded=0;orthogonalLoop=1;jettySize=auto;html=1;" parent="1" source="HxAyWMAIq7WzyqR53muz-58" edge="1">
          <mxGeometry relative="1" as="geometry">
            <mxPoint x="750" y="-2330" as="targetPoint" />
          </mxGeometry>
        </mxCell>
        <mxCell id="HxAyWMAIq7WzyqR53muz-58" value="&lt;div&gt;bool isEmpty = true&amp;nbsp;&lt;/div&gt;&lt;div&gt;&lt;span style=&quot;background-color: initial;&quot;&gt;bool onCell = false&lt;/span&gt;&lt;/div&gt;" style="rounded=0;whiteSpace=wrap;html=1;" parent="1" vertex="1">
          <mxGeometry x="692.5" y="-2410" width="115" height="50" as="geometry" />
        </mxCell>
        <mxCell id="HxAyWMAIq7WzyqR53muz-79" style="edgeStyle=orthogonalEdgeStyle;rounded=0;orthogonalLoop=1;jettySize=auto;html=1;" parent="1" source="HxAyWMAIq7WzyqR53muz-80" target="HxAyWMAIq7WzyqR53muz-84" edge="1">
          <mxGeometry relative="1" as="geometry">
            <mxPoint x="754.5" y="-2260" as="targetPoint" />
          </mxGeometry>
        </mxCell>
        <mxCell id="HxAyWMAIq7WzyqR53muz-80" value="int j = 0" style="rounded=0;whiteSpace=wrap;html=1;" parent="1" vertex="1">
          <mxGeometry x="712.5" y="-2330" width="75" height="20" as="geometry" />
        </mxCell>
        <mxCell id="HxAyWMAIq7WzyqR53muz-85" style="edgeStyle=orthogonalEdgeStyle;rounded=0;orthogonalLoop=1;jettySize=auto;html=1;" parent="1" source="HxAyWMAIq7WzyqR53muz-84" target="HxAyWMAIq7WzyqR53muz-86" edge="1">
          <mxGeometry relative="1" as="geometry">
            <mxPoint x="830" y="-2230" as="targetPoint" />
            <Array as="points">
              <mxPoint x="820" y="-2270" />
              <mxPoint x="820" y="-2230" />
              <mxPoint x="840" y="-2230" />
            </Array>
          </mxGeometry>
        </mxCell>
        <mxCell id="HxAyWMAIq7WzyqR53muz-103" value="True" style="edgeLabel;html=1;align=center;verticalAlign=middle;resizable=0;points=[];" parent="HxAyWMAIq7WzyqR53muz-85" vertex="1" connectable="0">
          <mxGeometry x="-0.1958" y="-1" relative="1" as="geometry">
            <mxPoint as="offset" />
          </mxGeometry>
        </mxCell>
        <mxCell id="HxAyWMAIq7WzyqR53muz-110" style="edgeStyle=orthogonalEdgeStyle;rounded=0;orthogonalLoop=1;jettySize=auto;html=1;" parent="1" source="HxAyWMAIq7WzyqR53muz-84" target="HxAyWMAIq7WzyqR53muz-113" edge="1">
          <mxGeometry relative="1" as="geometry">
            <mxPoint x="450.0000000000002" y="-2230" as="targetPoint" />
          </mxGeometry>
        </mxCell>
        <mxCell id="HxAyWMAIq7WzyqR53muz-111" value="False" style="edgeLabel;html=1;align=center;verticalAlign=middle;resizable=0;points=[];" parent="HxAyWMAIq7WzyqR53muz-110" vertex="1" connectable="0">
          <mxGeometry x="-0.4502" y="1" relative="1" as="geometry">
            <mxPoint as="offset" />
          </mxGeometry>
        </mxCell>
        <mxCell id="HxAyWMAIq7WzyqR53muz-84" value="&lt;div style=&quot;text-align: start;&quot;&gt;&lt;span style=&quot;background-color: initial;&quot;&gt;j &amp;lt;&amp;nbsp;&lt;/span&gt;&lt;span style=&quot;background-color: initial; text-align: center;&quot;&gt;&amp;nbsp;figCount&lt;/span&gt;&lt;span style=&quot;background-color: initial;&quot;&gt;&lt;font face=&quot;monospace&quot; color=&quot;rgba(0, 0, 0, 0)&quot;&gt;&lt;span style=&quot;font-size: 0px; text-wrap-mode: nowrap;&quot;&gt;&amp;nbsp;figCount3CmxGraphModel%3E%3Croot%3E%3CmxCell%20id%3D%220%22%2F%3E%3CmxCell%20id%3D%221%22%20parent%3D%220%22%2F%3E%3CmxCell%20id%3D%222%22%20style%3D%22edgeStyle%3DorthogonalEdgeStyle%3Brounded%3D0%3BorthogonalLoop%3D1%3BjettySize%3Dauto%3Bhtml%3D1%3B%22%20edge%3D%221%22%20target%3D%224%22%20parent%3D%221%22%3E%3CmxGeometry%20relative%3D%221%22%20as%3D%22geometry%22%3E%3CmxPoint%20x%3D%22745%22%20y%3D%22-2670%22%20as%3D%22targetPoint%22%2F%3E%3CmxPoint%20x%3D%22745%22%20y%3D%22-2700%22%20as%3D%22sourcePoint%22%2F%3E%3C%2FmxGeometry%3E%3C%2FmxCell%3E%3CmxCell%20id%3D%223%22%20style%3D%22edgeStyle%3DorthogonalEdgeStyle%3Brounded%3D0%3BorthogonalLoop%3D1%3BjettySize%3Dauto%3Bhtml%3D1%3B%22%20edge%3D%221%22%20source%3D%224%22%20target%3D%228%22%20parent%3D%221%22%3E%3CmxGeometry%20relative%3D%221%22%20as%3D%22geometry%22%3E%3CmxPoint%20x%3D%22745%22%20y%3D%22-2620%22%20as%3D%22targetPoint%22%2F%3E%3C%2FmxGeometry%3E%3C%2FmxCell%3E%3CmxCell%20id%3D%224%22%20value%3D%22int%20j%20%3D%200%22%20style%3D%22rounded%3D0%3BwhiteSpace%3Dwrap%3Bhtml%3D1%3B%22%20vertex%3D%221%22%20parent%3D%221%22%3E%3CmxGeometry%20x%3D%22707.5%22%20y%3D%22-2670%22%20width%3D%2275%22%20height%3D%2220%22%20as%3D%22geometry%22%2F%3E%3C%2FmxCell%3E%3CmxCell%20id%3D%225%22%20value%3D%22True%22%20style%3D%22edgeLabel%3Bhtml%3D1%3Balign%3Dcenter%3BverticalAlign%3Dmiddle%3Bresizable%3D0%3Bpoints%3D%5B%5D%3B%22%20vertex%3D%221%22%20connectable%3D%220%22%20parent%3D%221%22%3E%3CmxGeometry%20x%3D%22670.5%22%20y%3D%22-2600%22%20as%3D%22geometry%22%2F%3E%3C%2FmxCell%3E%3CmxCell%20id%3D%226%22%20style%3D%22edgeStyle%3DorthogonalEdgeStyle%3Brounded%3D0%3BorthogonalLoop%3D1%3BjettySize%3Dauto%3Bhtml%3D1%3B%22%20edge%3D%221%22%20source%3D%228%22%20parent%3D%221%22%3E%3CmxGeometry%20relative%3D%221%22%20as%3D%22geometry%22%3E%3CmxPoint%20x%3D%22810%22%20y%3D%22-2560%22%20as%3D%22targetPoint%22%2F%3E%3CArray%20as%3D%22points%22%3E%3CmxPoint%20x%3D%22810%22%20y%3D%22-2600%22%2F%3E%3CmxPoint%20x%3D%22810%22%20y%3D%22-2560%22%2F%3E%3CmxPoint%20x%3D%22830%22%20y%3D%22-2560%22%2F%3E%3C%2FArray%3E%3C%2FmxGeometry%3E%3C%2FmxCell%3E%3CmxCell%20id%3D%227%22%20value%3D%22False%22%20style%3D%22edgeLabel%3Bhtml%3D1%3Balign%3Dcenter%3BverticalAlign%3Dmiddle%3Bresizable%3D0%3Bpoints%3D%5B%5D%3B%22%20vertex%3D%221%22%20connectable%3D%220%22%20parent%3D%226%22%3E%3CmxGeometry%20x%3D%22-0.1321%22%20y%3D%223%22%20relative%3D%221%22%20as%3D%22geometry%22%3E%3CmxPoint%20as%3D%22offset%22%2F%3E%3C%2FmxGeometry%3E%3C%2FmxCell%3E%3CmxCell%20id%3D%228%22%20value%3D%22j%20%26amp%3Blt%3B%20row.size()%22%20style%3D%22rhombus%3BwhiteSpace%3Dwrap%3Bhtml%3D1%3B%22%20vertex%3D%221%22%20parent%3D%221%22%3E%3CmxGeometry%20x%3D%22692.5%22%20y%3D%22-2620%22%20width%3D%22105%22%20height%3D%2240%22%20as%3D%22geometry%22%2F%3E%3C%2FmxCell%3E%3C%2Froot%3E%3C%2FmxGraphModel%3E&lt;/span&gt;&lt;/font&gt;&lt;/span&gt;&lt;span style=&quot;background-color: initial; text-wrap-mode: nowrap; font-size: 0px;&quot;&gt;&lt;font face=&quot;monospace&quot; color=&quot;rgba(0, 0, 0, 0)&quot;&gt;&amp;nbsp;figCount&lt;/font&gt;&lt;/span&gt;&lt;/div&gt;" style="rhombus;whiteSpace=wrap;html=1;" parent="1" vertex="1">
          <mxGeometry x="697.5" y="-2290" width="105" height="40" as="geometry" />
        </mxCell>
        <mxCell id="HxAyWMAIq7WzyqR53muz-88" style="edgeStyle=orthogonalEdgeStyle;rounded=0;orthogonalLoop=1;jettySize=auto;html=1;" parent="1" source="HxAyWMAIq7WzyqR53muz-86" target="HxAyWMAIq7WzyqR53muz-89" edge="1">
          <mxGeometry relative="1" as="geometry">
            <mxPoint x="820" y="-2170" as="targetPoint" />
          </mxGeometry>
        </mxCell>
        <mxCell id="HxAyWMAIq7WzyqR53muz-86" value="cellCheck(figures[j], x, y)" style="shape=process;whiteSpace=wrap;html=1;backgroundOutline=1;" parent="1" vertex="1">
          <mxGeometry x="750" y="-2240" width="140" height="40" as="geometry" />
        </mxCell>
        <mxCell id="HxAyWMAIq7WzyqR53muz-90" style="edgeStyle=orthogonalEdgeStyle;rounded=0;orthogonalLoop=1;jettySize=auto;html=1;" parent="1" source="HxAyWMAIq7WzyqR53muz-89" target="HxAyWMAIq7WzyqR53muz-91" edge="1">
          <mxGeometry relative="1" as="geometry">
            <mxPoint x="820" y="-2090" as="targetPoint" />
          </mxGeometry>
        </mxCell>
        <mxCell id="HxAyWMAIq7WzyqR53muz-89" value="&amp;nbsp;int index = cellCheck(figures[j], x, y)" style="rounded=0;whiteSpace=wrap;html=1;" parent="1" vertex="1">
          <mxGeometry x="742.5" y="-2180" width="155" height="60" as="geometry" />
        </mxCell>
        <mxCell id="HxAyWMAIq7WzyqR53muz-92" style="edgeStyle=orthogonalEdgeStyle;rounded=0;orthogonalLoop=1;jettySize=auto;html=1;exitX=1;exitY=0.5;exitDx=0;exitDy=0;" parent="1" source="HxAyWMAIq7WzyqR53muz-91" target="HxAyWMAIq7WzyqR53muz-94" edge="1">
          <mxGeometry relative="1" as="geometry">
            <mxPoint x="930" y="-2020" as="targetPoint" />
          </mxGeometry>
        </mxCell>
        <mxCell id="HxAyWMAIq7WzyqR53muz-93" value="True" style="edgeLabel;html=1;align=center;verticalAlign=middle;resizable=0;points=[];" parent="HxAyWMAIq7WzyqR53muz-92" vertex="1" connectable="0">
          <mxGeometry x="0.2233" y="-2" relative="1" as="geometry">
            <mxPoint as="offset" />
          </mxGeometry>
        </mxCell>
        <mxCell id="HxAyWMAIq7WzyqR53muz-97" style="edgeStyle=orthogonalEdgeStyle;rounded=0;orthogonalLoop=1;jettySize=auto;html=1;exitX=0;exitY=0.5;exitDx=0;exitDy=0;" parent="1" source="HxAyWMAIq7WzyqR53muz-91" target="HxAyWMAIq7WzyqR53muz-98" edge="1">
          <mxGeometry relative="1" as="geometry">
            <mxPoint x="710" y="-2010" as="targetPoint" />
          </mxGeometry>
        </mxCell>
        <mxCell id="HxAyWMAIq7WzyqR53muz-99" value="False" style="edgeLabel;html=1;align=center;verticalAlign=middle;resizable=0;points=[];" parent="HxAyWMAIq7WzyqR53muz-97" vertex="1" connectable="0">
          <mxGeometry x="0.0348" y="3" relative="1" as="geometry">
            <mxPoint as="offset" />
          </mxGeometry>
        </mxCell>
        <mxCell id="HxAyWMAIq7WzyqR53muz-91" value="index &amp;gt;= 0 &amp;amp;&amp;amp; index &amp;lt;= 5" style="rhombus;whiteSpace=wrap;html=1;" parent="1" vertex="1">
          <mxGeometry x="735" y="-2090" width="170" height="50" as="geometry" />
        </mxCell>
        <mxCell id="HxAyWMAIq7WzyqR53muz-95" style="edgeStyle=orthogonalEdgeStyle;rounded=0;orthogonalLoop=1;jettySize=auto;html=1;" parent="1" source="HxAyWMAIq7WzyqR53muz-94" target="HxAyWMAIq7WzyqR53muz-96" edge="1">
          <mxGeometry relative="1" as="geometry">
            <mxPoint x="940" y="-1970" as="targetPoint" />
          </mxGeometry>
        </mxCell>
        <mxCell id="HxAyWMAIq7WzyqR53muz-94" value="&amp;nbsp;result.insert(F[index])" style="rounded=0;whiteSpace=wrap;html=1;" parent="1" vertex="1">
          <mxGeometry x="880" y="-2030" width="120" height="30" as="geometry" />
        </mxCell>
        <mxCell id="HxAyWMAIq7WzyqR53muz-108" style="edgeStyle=orthogonalEdgeStyle;rounded=0;orthogonalLoop=1;jettySize=auto;html=1;entryX=0.5;entryY=0;entryDx=0;entryDy=0;" parent="1" source="HxAyWMAIq7WzyqR53muz-96" target="HxAyWMAIq7WzyqR53muz-105" edge="1">
          <mxGeometry relative="1" as="geometry">
            <Array as="points">
              <mxPoint x="940" y="-1870" />
              <mxPoint x="755" y="-1870" />
            </Array>
          </mxGeometry>
        </mxCell>
        <mxCell id="HxAyWMAIq7WzyqR53muz-96" value="isEmpty = false" style="rounded=0;whiteSpace=wrap;html=1;" parent="1" vertex="1">
          <mxGeometry x="880" y="-1980" width="120" height="20" as="geometry" />
        </mxCell>
        <mxCell id="HxAyWMAIq7WzyqR53muz-100" style="edgeStyle=orthogonalEdgeStyle;rounded=0;orthogonalLoop=1;jettySize=auto;html=1;" parent="1" source="HxAyWMAIq7WzyqR53muz-98" target="HxAyWMAIq7WzyqR53muz-101" edge="1">
          <mxGeometry relative="1" as="geometry">
            <mxPoint x="770" y="-1970" as="targetPoint" />
            <Array as="points">
              <mxPoint x="750" y="-2000" />
              <mxPoint x="750" y="-1960" />
              <mxPoint x="758" y="-1960" />
            </Array>
          </mxGeometry>
        </mxCell>
        <mxCell id="HxAyWMAIq7WzyqR53muz-102" value="True" style="edgeLabel;html=1;align=center;verticalAlign=middle;resizable=0;points=[];" parent="HxAyWMAIq7WzyqR53muz-100" vertex="1" connectable="0">
          <mxGeometry x="-0.1116" y="2" relative="1" as="geometry">
            <mxPoint as="offset" />
          </mxGeometry>
        </mxCell>
        <mxCell id="HxAyWMAIq7WzyqR53muz-104" style="edgeStyle=orthogonalEdgeStyle;rounded=0;orthogonalLoop=1;jettySize=auto;html=1;entryX=0.5;entryY=0;entryDx=0;entryDy=0;" parent="1" source="HxAyWMAIq7WzyqR53muz-98" target="HxAyWMAIq7WzyqR53muz-105" edge="1">
          <mxGeometry relative="1" as="geometry">
            <mxPoint x="620" y="-1880" as="targetPoint" />
            <Array as="points">
              <mxPoint x="580" y="-2000" />
              <mxPoint x="580" y="-1870" />
              <mxPoint x="755" y="-1870" />
            </Array>
          </mxGeometry>
        </mxCell>
        <mxCell id="HxAyWMAIq7WzyqR53muz-106" value="False" style="edgeLabel;html=1;align=center;verticalAlign=middle;resizable=0;points=[];" parent="HxAyWMAIq7WzyqR53muz-104" vertex="1" connectable="0">
          <mxGeometry x="-0.5141" relative="1" as="geometry">
            <mxPoint as="offset" />
          </mxGeometry>
        </mxCell>
        <mxCell id="HxAyWMAIq7WzyqR53muz-98" value="index == 6" style="rhombus;whiteSpace=wrap;html=1;" parent="1" vertex="1">
          <mxGeometry x="650" y="-2020" width="92.5" height="40" as="geometry" />
        </mxCell>
        <mxCell id="HxAyWMAIq7WzyqR53muz-107" style="edgeStyle=orthogonalEdgeStyle;rounded=0;orthogonalLoop=1;jettySize=auto;html=1;entryX=0.5;entryY=0;entryDx=0;entryDy=0;" parent="1" source="HxAyWMAIq7WzyqR53muz-101" target="HxAyWMAIq7WzyqR53muz-105" edge="1">
          <mxGeometry relative="1" as="geometry">
            <mxPoint x="752.5" y="-1890" as="targetPoint" />
            <Array as="points">
              <mxPoint x="755" y="-1910" />
              <mxPoint x="755" y="-1910" />
            </Array>
          </mxGeometry>
        </mxCell>
        <mxCell id="HxAyWMAIq7WzyqR53muz-101" value="&lt;div&gt;onCell = true;&lt;/div&gt;&lt;div&gt;&amp;nbsp; &amp;nbsp;isEmpty = false&lt;/div&gt;" style="rounded=0;whiteSpace=wrap;html=1;" parent="1" vertex="1">
          <mxGeometry x="692.5" y="-1960" width="120" height="30" as="geometry" />
        </mxCell>
        <mxCell id="HxAyWMAIq7WzyqR53muz-109" style="edgeStyle=orthogonalEdgeStyle;rounded=0;orthogonalLoop=1;jettySize=auto;html=1;" parent="1" source="HxAyWMAIq7WzyqR53muz-105" edge="1">
          <mxGeometry relative="1" as="geometry">
            <mxPoint x="750" y="-2300" as="targetPoint" />
            <Array as="points">
              <mxPoint x="1050" y="-1835" />
              <mxPoint x="1050" y="-2300" />
              <mxPoint x="788" y="-2300" />
            </Array>
          </mxGeometry>
        </mxCell>
        <mxCell id="HxAyWMAIq7WzyqR53muz-105" value="j++" style="rounded=0;whiteSpace=wrap;html=1;" parent="1" vertex="1">
          <mxGeometry x="730" y="-1850" width="50" height="30" as="geometry" />
        </mxCell>
        <mxCell id="HxAyWMAIq7WzyqR53muz-114" style="edgeStyle=orthogonalEdgeStyle;rounded=0;orthogonalLoop=1;jettySize=auto;html=1;exitX=1;exitY=0.5;exitDx=0;exitDy=0;" parent="1" source="HxAyWMAIq7WzyqR53muz-113" target="HxAyWMAIq7WzyqR53muz-115" edge="1">
          <mxGeometry relative="1" as="geometry">
            <mxPoint x="520" y="-2170" as="targetPoint" />
          </mxGeometry>
        </mxCell>
        <mxCell id="HxAyWMAIq7WzyqR53muz-120" value="True" style="edgeLabel;html=1;align=center;verticalAlign=middle;resizable=0;points=[];" parent="HxAyWMAIq7WzyqR53muz-114" vertex="1" connectable="0">
          <mxGeometry x="-0.4207" y="1" relative="1" as="geometry">
            <mxPoint as="offset" />
          </mxGeometry>
        </mxCell>
        <mxCell id="HxAyWMAIq7WzyqR53muz-116" style="edgeStyle=orthogonalEdgeStyle;rounded=0;orthogonalLoop=1;jettySize=auto;html=1;entryX=0.5;entryY=0;entryDx=0;entryDy=0;exitX=0;exitY=0.5;exitDx=0;exitDy=0;" parent="1" source="HxAyWMAIq7WzyqR53muz-113" target="HxAyWMAIq7WzyqR53muz-117" edge="1">
          <mxGeometry relative="1" as="geometry">
            <mxPoint x="390" y="-2170" as="targetPoint" />
          </mxGeometry>
        </mxCell>
        <mxCell id="HxAyWMAIq7WzyqR53muz-121" value="False" style="edgeLabel;html=1;align=center;verticalAlign=middle;resizable=0;points=[];" parent="HxAyWMAIq7WzyqR53muz-116" vertex="1" connectable="0">
          <mxGeometry x="0.1267" relative="1" as="geometry">
            <mxPoint as="offset" />
          </mxGeometry>
        </mxCell>
        <mxCell id="HxAyWMAIq7WzyqR53muz-113" value="onCell == True" style="rhombus;whiteSpace=wrap;html=1;" parent="1" vertex="1">
          <mxGeometry x="410" y="-2230" width="90" height="40" as="geometry" />
        </mxCell>
        <mxCell id="HxAyWMAIq7WzyqR53muz-142" style="edgeStyle=orthogonalEdgeStyle;rounded=0;orthogonalLoop=1;jettySize=auto;html=1;entryX=0.5;entryY=0;entryDx=0;entryDy=0;" parent="1" source="HxAyWMAIq7WzyqR53muz-115" target="HxAyWMAIq7WzyqR53muz-140" edge="1">
          <mxGeometry relative="1" as="geometry">
            <Array as="points">
              <mxPoint x="550" y="-2060" />
              <mxPoint x="382" y="-2060" />
            </Array>
          </mxGeometry>
        </mxCell>
        <mxCell id="HxAyWMAIq7WzyqR53muz-115" value="results[i] = &quot;X&quot;" style="rounded=0;whiteSpace=wrap;html=1;" parent="1" vertex="1">
          <mxGeometry x="490" y="-2180" width="120" height="30" as="geometry" />
        </mxCell>
        <mxCell id="HxAyWMAIq7WzyqR53muz-118" style="edgeStyle=orthogonalEdgeStyle;rounded=0;orthogonalLoop=1;jettySize=auto;html=1;exitX=1;exitY=0.5;exitDx=0;exitDy=0;" parent="1" source="HxAyWMAIq7WzyqR53muz-117" target="HxAyWMAIq7WzyqR53muz-119" edge="1">
          <mxGeometry relative="1" as="geometry">
            <mxPoint x="460" y="-2120" as="targetPoint" />
          </mxGeometry>
        </mxCell>
        <mxCell id="HxAyWMAIq7WzyqR53muz-122" value="True" style="edgeLabel;html=1;align=center;verticalAlign=middle;resizable=0;points=[];" parent="HxAyWMAIq7WzyqR53muz-118" vertex="1" connectable="0">
          <mxGeometry x="0.1194" y="3" relative="1" as="geometry">
            <mxPoint as="offset" />
          </mxGeometry>
        </mxCell>
        <mxCell id="HxAyWMAIq7WzyqR53muz-123" style="edgeStyle=orthogonalEdgeStyle;rounded=0;orthogonalLoop=1;jettySize=auto;html=1;" parent="1" source="HxAyWMAIq7WzyqR53muz-117" target="HxAyWMAIq7WzyqR53muz-126" edge="1">
          <mxGeometry relative="1" as="geometry">
            <mxPoint x="300" y="-2110" as="targetPoint" />
            <Array as="points">
              <mxPoint x="310" y="-2165" />
            </Array>
          </mxGeometry>
        </mxCell>
        <mxCell id="HxAyWMAIq7WzyqR53muz-124" value="False" style="edgeLabel;html=1;align=center;verticalAlign=middle;resizable=0;points=[];" parent="HxAyWMAIq7WzyqR53muz-123" vertex="1" connectable="0">
          <mxGeometry x="-0.6144" y="3" relative="1" as="geometry">
            <mxPoint as="offset" />
          </mxGeometry>
        </mxCell>
        <mxCell id="HxAyWMAIq7WzyqR53muz-117" value="isEmpty == True" style="rhombus;whiteSpace=wrap;html=1;" parent="1" vertex="1">
          <mxGeometry x="330" y="-2185" width="105" height="40" as="geometry" />
        </mxCell>
        <mxCell id="HxAyWMAIq7WzyqR53muz-141" style="edgeStyle=orthogonalEdgeStyle;rounded=0;orthogonalLoop=1;jettySize=auto;html=1;entryX=0.5;entryY=0;entryDx=0;entryDy=0;" parent="1" source="HxAyWMAIq7WzyqR53muz-119" target="HxAyWMAIq7WzyqR53muz-140" edge="1">
          <mxGeometry relative="1" as="geometry">
            <Array as="points">
              <mxPoint x="455" y="-2060" />
              <mxPoint x="382" y="-2060" />
            </Array>
          </mxGeometry>
        </mxCell>
        <mxCell id="HxAyWMAIq7WzyqR53muz-119" value="results[i] = &quot;O&quot;" style="rounded=0;whiteSpace=wrap;html=1;" parent="1" vertex="1">
          <mxGeometry x="410" y="-2120" width="90" height="30" as="geometry" />
        </mxCell>
        <mxCell id="HxAyWMAIq7WzyqR53muz-127" style="edgeStyle=orthogonalEdgeStyle;rounded=0;orthogonalLoop=1;jettySize=auto;html=1;" parent="1" source="HxAyWMAIq7WzyqR53muz-126" target="HxAyWMAIq7WzyqR53muz-128" edge="1">
          <mxGeometry relative="1" as="geometry">
            <mxPoint x="310" y="-2060" as="targetPoint" />
          </mxGeometry>
        </mxCell>
        <mxCell id="HxAyWMAIq7WzyqR53muz-126" value="&amp;nbsp;it = result.begin()&amp;nbsp;" style="rounded=0;whiteSpace=wrap;html=1;" parent="1" vertex="1">
          <mxGeometry x="250" y="-2120" width="120" height="30" as="geometry" />
        </mxCell>
        <mxCell id="HxAyWMAIq7WzyqR53muz-129" style="edgeStyle=orthogonalEdgeStyle;rounded=0;orthogonalLoop=1;jettySize=auto;html=1;" parent="1" source="HxAyWMAIq7WzyqR53muz-128" target="HxAyWMAIq7WzyqR53muz-130" edge="1">
          <mxGeometry relative="1" as="geometry">
            <mxPoint x="390" y="-1990" as="targetPoint" />
            <Array as="points">
              <mxPoint x="220" y="-2025" />
            </Array>
          </mxGeometry>
        </mxCell>
        <mxCell id="HxAyWMAIq7WzyqR53muz-131" value="True" style="edgeLabel;html=1;align=center;verticalAlign=middle;resizable=0;points=[];" parent="HxAyWMAIq7WzyqR53muz-129" vertex="1" connectable="0">
          <mxGeometry x="0.0226" relative="1" as="geometry">
            <mxPoint as="offset" />
          </mxGeometry>
        </mxCell>
        <mxCell id="HxAyWMAIq7WzyqR53muz-138" style="edgeStyle=orthogonalEdgeStyle;rounded=0;orthogonalLoop=1;jettySize=auto;html=1;" parent="1" source="HxAyWMAIq7WzyqR53muz-128" target="HxAyWMAIq7WzyqR53muz-140" edge="1">
          <mxGeometry relative="1" as="geometry">
            <mxPoint x="390" y="-1950" as="targetPoint" />
            <Array as="points">
              <mxPoint x="383" y="-2025" />
            </Array>
          </mxGeometry>
        </mxCell>
        <mxCell id="HxAyWMAIq7WzyqR53muz-139" value="False" style="edgeLabel;html=1;align=center;verticalAlign=middle;resizable=0;points=[];" parent="HxAyWMAIq7WzyqR53muz-138" vertex="1" connectable="0">
          <mxGeometry x="-0.1093" y="-1" relative="1" as="geometry">
            <mxPoint y="9" as="offset" />
          </mxGeometry>
        </mxCell>
        <mxCell id="HxAyWMAIq7WzyqR53muz-128" value="it != result.end()" style="rhombus;whiteSpace=wrap;html=1;" parent="1" vertex="1">
          <mxGeometry x="255" y="-2040" width="110" height="30" as="geometry" />
        </mxCell>
        <mxCell id="HxAyWMAIq7WzyqR53muz-135" style="edgeStyle=orthogonalEdgeStyle;rounded=0;orthogonalLoop=1;jettySize=auto;html=1;entryX=0.5;entryY=0;entryDx=0;entryDy=0;" parent="1" source="HxAyWMAIq7WzyqR53muz-130" target="HxAyWMAIq7WzyqR53muz-133" edge="1">
          <mxGeometry relative="1" as="geometry">
            <Array as="points">
              <mxPoint x="220.5" y="-1970" />
              <mxPoint x="220.5" y="-1970" />
            </Array>
          </mxGeometry>
        </mxCell>
        <mxCell id="HxAyWMAIq7WzyqR53muz-130" value="results[i] += *it" style="rounded=0;whiteSpace=wrap;html=1;" parent="1" vertex="1">
          <mxGeometry x="160" y="-2000" width="120" height="20" as="geometry" />
        </mxCell>
        <mxCell id="HxAyWMAIq7WzyqR53muz-137" style="edgeStyle=orthogonalEdgeStyle;rounded=0;orthogonalLoop=1;jettySize=auto;html=1;" parent="1" source="HxAyWMAIq7WzyqR53muz-133" edge="1">
          <mxGeometry relative="1" as="geometry">
            <mxPoint x="310" y="-2060" as="targetPoint" />
            <Array as="points">
              <mxPoint x="140" y="-1950" />
              <mxPoint x="140" y="-2060" />
              <mxPoint x="250" y="-2060" />
            </Array>
          </mxGeometry>
        </mxCell>
        <mxCell id="HxAyWMAIq7WzyqR53muz-133" value="it++" style="rounded=0;whiteSpace=wrap;html=1;" parent="1" vertex="1">
          <mxGeometry x="195" y="-1960" width="50" height="20" as="geometry" />
        </mxCell>
        <mxCell id="HxAyWMAIq7WzyqR53muz-143" style="edgeStyle=orthogonalEdgeStyle;rounded=0;orthogonalLoop=1;jettySize=auto;html=1;" parent="1" source="HxAyWMAIq7WzyqR53muz-140" edge="1">
          <mxGeometry relative="1" as="geometry">
            <mxPoint x="690" y="-2620" as="targetPoint" />
            <Array as="points">
              <mxPoint x="383" y="-1920" />
              <mxPoint x="100" y="-1920" />
              <mxPoint x="100" y="-2620" />
              <mxPoint x="650" y="-2620" />
            </Array>
          </mxGeometry>
        </mxCell>
        <mxCell id="HxAyWMAIq7WzyqR53muz-140" value="i++" style="rounded=0;whiteSpace=wrap;html=1;" parent="1" vertex="1">
          <mxGeometry x="346.25" y="-1980" width="72.5" height="20" as="geometry" />
        </mxCell>
        <mxCell id="HxAyWMAIq7WzyqR53muz-147" style="edgeStyle=orthogonalEdgeStyle;rounded=0;orthogonalLoop=1;jettySize=auto;html=1;" parent="1" source="HxAyWMAIq7WzyqR53muz-148" target="HxAyWMAIq7WzyqR53muz-150" edge="1">
          <mxGeometry relative="1" as="geometry">
            <mxPoint x="490" y="-2470" as="targetPoint" />
          </mxGeometry>
        </mxCell>
        <mxCell id="HxAyWMAIq7WzyqR53muz-148" value="int i = 0" style="rounded=0;whiteSpace=wrap;html=1;" parent="1" vertex="1">
          <mxGeometry x="450" y="-2550" width="80" height="30" as="geometry" />
        </mxCell>
        <mxCell id="HxAyWMAIq7WzyqR53muz-151" style="edgeStyle=orthogonalEdgeStyle;rounded=0;orthogonalLoop=1;jettySize=auto;html=1;exitX=1;exitY=0.5;exitDx=0;exitDy=0;" parent="1" source="HxAyWMAIq7WzyqR53muz-150" target="HxAyWMAIq7WzyqR53muz-152" edge="1">
          <mxGeometry relative="1" as="geometry">
            <mxPoint x="550" y="-2450" as="targetPoint" />
          </mxGeometry>
        </mxCell>
        <mxCell id="HxAyWMAIq7WzyqR53muz-156" value="True" style="edgeLabel;html=1;align=center;verticalAlign=middle;resizable=0;points=[];" parent="HxAyWMAIq7WzyqR53muz-151" vertex="1" connectable="0">
          <mxGeometry x="0.0753" y="1" relative="1" as="geometry">
            <mxPoint as="offset" />
          </mxGeometry>
        </mxCell>
        <mxCell id="HxAyWMAIq7WzyqR53muz-157" style="edgeStyle=orthogonalEdgeStyle;rounded=0;orthogonalLoop=1;jettySize=auto;html=1;" parent="1" source="HxAyWMAIq7WzyqR53muz-150" target="HxAyWMAIq7WzyqR53muz-158" edge="1">
          <mxGeometry relative="1" as="geometry">
            <mxPoint x="400" y="-2420" as="targetPoint" />
            <Array as="points">
              <mxPoint x="390" y="-2480" />
            </Array>
          </mxGeometry>
        </mxCell>
        <mxCell id="HxAyWMAIq7WzyqR53muz-161" value="False" style="edgeLabel;html=1;align=center;verticalAlign=middle;resizable=0;points=[];" parent="HxAyWMAIq7WzyqR53muz-157" vertex="1" connectable="0">
          <mxGeometry x="-0.2495" y="-3" relative="1" as="geometry">
            <mxPoint as="offset" />
          </mxGeometry>
        </mxCell>
        <mxCell id="HxAyWMAIq7WzyqR53muz-150" value="i &amp;lt; n" style="rhombus;whiteSpace=wrap;html=1;" parent="1" vertex="1">
          <mxGeometry x="450" y="-2500" width="80" height="40" as="geometry" />
        </mxCell>
        <mxCell id="HxAyWMAIq7WzyqR53muz-153" style="edgeStyle=orthogonalEdgeStyle;rounded=0;orthogonalLoop=1;jettySize=auto;html=1;" parent="1" source="HxAyWMAIq7WzyqR53muz-152" target="HxAyWMAIq7WzyqR53muz-154" edge="1">
          <mxGeometry relative="1" as="geometry">
            <mxPoint x="555" y="-2380" as="targetPoint" />
          </mxGeometry>
        </mxCell>
        <mxCell id="HxAyWMAIq7WzyqR53muz-152" value="cout &amp;lt;&amp;lt; results[i] &amp;lt;&amp;lt; endl" style="shape=parallelogram;perimeter=parallelogramPerimeter;whiteSpace=wrap;html=1;fixedSize=1;" parent="1" vertex="1">
          <mxGeometry x="490" y="-2450" width="130" height="40" as="geometry" />
        </mxCell>
        <mxCell id="HxAyWMAIq7WzyqR53muz-155" style="edgeStyle=orthogonalEdgeStyle;rounded=0;orthogonalLoop=1;jettySize=auto;html=1;" parent="1" source="HxAyWMAIq7WzyqR53muz-154" edge="1">
          <mxGeometry relative="1" as="geometry">
            <mxPoint x="490" y="-2510" as="targetPoint" />
            <Array as="points">
              <mxPoint x="640" y="-2380" />
              <mxPoint x="640" y="-2510" />
              <mxPoint x="530" y="-2510" />
            </Array>
          </mxGeometry>
        </mxCell>
        <mxCell id="HxAyWMAIq7WzyqR53muz-154" value="i++" style="rounded=0;whiteSpace=wrap;html=1;" parent="1" vertex="1">
          <mxGeometry x="522.5" y="-2390" width="65" height="20" as="geometry" />
        </mxCell>
        <mxCell id="HxAyWMAIq7WzyqR53muz-159" style="edgeStyle=orthogonalEdgeStyle;rounded=0;orthogonalLoop=1;jettySize=auto;html=1;" parent="1" source="HxAyWMAIq7WzyqR53muz-158" target="HxAyWMAIq7WzyqR53muz-160" edge="1">
          <mxGeometry relative="1" as="geometry">
            <mxPoint x="390" y="-2380" as="targetPoint" />
          </mxGeometry>
        </mxCell>
        <mxCell id="HxAyWMAIq7WzyqR53muz-158" value="delete[] results" style="rounded=0;whiteSpace=wrap;html=1;" parent="1" vertex="1">
          <mxGeometry x="330" y="-2440" width="120" height="30" as="geometry" />
        </mxCell>
        <mxCell id="HxAyWMAIq7WzyqR53muz-160" value="End" style="ellipse;whiteSpace=wrap;html=1;" parent="1" vertex="1">
          <mxGeometry x="330" y="-2380" width="120" height="40" as="geometry" />
        </mxCell>
        <mxCell id="O3R_HScv1RRYIjpaJ4MT-2" style="edgeStyle=orthogonalEdgeStyle;rounded=0;orthogonalLoop=1;jettySize=auto;html=1;" edge="1" parent="1" source="O3R_HScv1RRYIjpaJ4MT-1" target="O3R_HScv1RRYIjpaJ4MT-3">
          <mxGeometry relative="1" as="geometry">
            <mxPoint x="270" y="-3210" as="targetPoint" />
          </mxGeometry>
        </mxCell>
        <mxCell id="O3R_HScv1RRYIjpaJ4MT-1" value="int cellCheck(Figure &amp;amp;f, int x, int y)" style="ellipse;whiteSpace=wrap;html=1;" vertex="1" parent="1">
          <mxGeometry x="210" y="-3290" width="120" height="50" as="geometry" />
        </mxCell>
        <mxCell id="O3R_HScv1RRYIjpaJ4MT-4" style="edgeStyle=orthogonalEdgeStyle;rounded=0;orthogonalLoop=1;jettySize=auto;html=1;exitX=1;exitY=0.5;exitDx=0;exitDy=0;" edge="1" parent="1" source="O3R_HScv1RRYIjpaJ4MT-3" target="O3R_HScv1RRYIjpaJ4MT-5">
          <mxGeometry relative="1" as="geometry">
            <mxPoint x="380" y="-3130" as="targetPoint" />
          </mxGeometry>
        </mxCell>
        <mxCell id="O3R_HScv1RRYIjpaJ4MT-6" value="True" style="edgeLabel;html=1;align=center;verticalAlign=middle;resizable=0;points=[];" vertex="1" connectable="0" parent="O3R_HScv1RRYIjpaJ4MT-4">
          <mxGeometry x="-0.5056" y="3" relative="1" as="geometry">
            <mxPoint x="1" y="3" as="offset" />
          </mxGeometry>
        </mxCell>
        <mxCell id="O3R_HScv1RRYIjpaJ4MT-7" style="edgeStyle=orthogonalEdgeStyle;rounded=0;orthogonalLoop=1;jettySize=auto;html=1;exitX=0;exitY=0.5;exitDx=0;exitDy=0;" edge="1" parent="1" source="O3R_HScv1RRYIjpaJ4MT-3" target="O3R_HScv1RRYIjpaJ4MT-8">
          <mxGeometry relative="1" as="geometry">
            <mxPoint x="160" y="-3150" as="targetPoint" />
          </mxGeometry>
        </mxCell>
        <mxCell id="O3R_HScv1RRYIjpaJ4MT-3" value="f.x == x &amp;amp;&amp;amp; f.y == y" style="rhombus;whiteSpace=wrap;html=1;" vertex="1" parent="1">
          <mxGeometry x="187.5" y="-3210" width="165" height="40" as="geometry" />
        </mxCell>
        <mxCell id="O3R_HScv1RRYIjpaJ4MT-5" value="return 6" style="ellipse;whiteSpace=wrap;html=1;" vertex="1" parent="1">
          <mxGeometry x="350" y="-3170" width="85" height="30" as="geometry" />
        </mxCell>
        <mxCell id="O3R_HScv1RRYIjpaJ4MT-10" style="edgeStyle=orthogonalEdgeStyle;rounded=0;orthogonalLoop=1;jettySize=auto;html=1;" edge="1" parent="1" source="O3R_HScv1RRYIjpaJ4MT-8" target="O3R_HScv1RRYIjpaJ4MT-12">
          <mxGeometry relative="1" as="geometry">
            <mxPoint x="142.5" y="-3120" as="targetPoint" />
          </mxGeometry>
        </mxCell>
        <mxCell id="O3R_HScv1RRYIjpaJ4MT-8" value="switch (f.name)" style="rounded=0;whiteSpace=wrap;html=1;" vertex="1" parent="1">
          <mxGeometry x="97.5" y="-3170" width="90" height="20" as="geometry" />
        </mxCell>
        <mxCell id="O3R_HScv1RRYIjpaJ4MT-9" style="edgeStyle=orthogonalEdgeStyle;rounded=0;orthogonalLoop=1;jettySize=auto;html=1;exitX=0.5;exitY=1;exitDx=0;exitDy=0;" edge="1" parent="1" source="O3R_HScv1RRYIjpaJ4MT-8" target="O3R_HScv1RRYIjpaJ4MT-8">
          <mxGeometry relative="1" as="geometry" />
        </mxCell>
        <mxCell id="O3R_HScv1RRYIjpaJ4MT-13" style="edgeStyle=orthogonalEdgeStyle;rounded=0;orthogonalLoop=1;jettySize=auto;html=1;exitX=1;exitY=0.5;exitDx=0;exitDy=0;" edge="1" parent="1" source="O3R_HScv1RRYIjpaJ4MT-12" target="O3R_HScv1RRYIjpaJ4MT-15">
          <mxGeometry relative="1" as="geometry">
            <mxPoint x="230" y="-3080" as="targetPoint" />
          </mxGeometry>
        </mxCell>
        <mxCell id="O3R_HScv1RRYIjpaJ4MT-14" value="True" style="edgeLabel;html=1;align=center;verticalAlign=middle;resizable=0;points=[];" vertex="1" connectable="0" parent="O3R_HScv1RRYIjpaJ4MT-13">
          <mxGeometry x="-0.4682" y="1" relative="1" as="geometry">
            <mxPoint as="offset" />
          </mxGeometry>
        </mxCell>
        <mxCell id="O3R_HScv1RRYIjpaJ4MT-24" style="edgeStyle=orthogonalEdgeStyle;rounded=0;orthogonalLoop=1;jettySize=auto;html=1;exitX=0;exitY=0.5;exitDx=0;exitDy=0;entryX=0.5;entryY=0;entryDx=0;entryDy=0;" edge="1" parent="1" source="O3R_HScv1RRYIjpaJ4MT-12" target="O3R_HScv1RRYIjpaJ4MT-23">
          <mxGeometry relative="1" as="geometry">
            <Array as="points">
              <mxPoint x="66" y="-3115" />
              <mxPoint x="66" y="-3060" />
            </Array>
          </mxGeometry>
        </mxCell>
        <mxCell id="O3R_HScv1RRYIjpaJ4MT-25" value="False" style="edgeLabel;html=1;align=center;verticalAlign=middle;resizable=0;points=[];" vertex="1" connectable="0" parent="O3R_HScv1RRYIjpaJ4MT-24">
          <mxGeometry x="-0.5512" relative="1" as="geometry">
            <mxPoint as="offset" />
          </mxGeometry>
        </mxCell>
        <mxCell id="O3R_HScv1RRYIjpaJ4MT-12" value="case &#39;P&#39;" style="rhombus;whiteSpace=wrap;html=1;" vertex="1" parent="1">
          <mxGeometry x="86.25" y="-3130" width="112.5" height="30" as="geometry" />
        </mxCell>
        <mxCell id="O3R_HScv1RRYIjpaJ4MT-16" style="edgeStyle=orthogonalEdgeStyle;rounded=0;orthogonalLoop=1;jettySize=auto;html=1;exitX=1;exitY=0.5;exitDx=0;exitDy=0;" edge="1" parent="1" source="O3R_HScv1RRYIjpaJ4MT-15" target="O3R_HScv1RRYIjpaJ4MT-18">
          <mxGeometry relative="1" as="geometry">
            <mxPoint x="420" y="-3050" as="targetPoint" />
          </mxGeometry>
        </mxCell>
        <mxCell id="O3R_HScv1RRYIjpaJ4MT-17" value="True" style="edgeLabel;html=1;align=center;verticalAlign=middle;resizable=0;points=[];" vertex="1" connectable="0" parent="O3R_HScv1RRYIjpaJ4MT-16">
          <mxGeometry x="0.0376" y="3" relative="1" as="geometry">
            <mxPoint as="offset" />
          </mxGeometry>
        </mxCell>
        <mxCell id="O3R_HScv1RRYIjpaJ4MT-19" style="edgeStyle=orthogonalEdgeStyle;rounded=0;orthogonalLoop=1;jettySize=auto;html=1;entryX=0.5;entryY=0;entryDx=0;entryDy=0;" edge="1" parent="1" source="O3R_HScv1RRYIjpaJ4MT-15" target="O3R_HScv1RRYIjpaJ4MT-23">
          <mxGeometry relative="1" as="geometry">
            <mxPoint x="190" y="-3060" as="targetPoint" />
            <Array as="points">
              <mxPoint x="190" y="-3085" />
            </Array>
          </mxGeometry>
        </mxCell>
        <mxCell id="O3R_HScv1RRYIjpaJ4MT-22" value="False" style="edgeLabel;html=1;align=center;verticalAlign=middle;resizable=0;points=[];" vertex="1" connectable="0" parent="O3R_HScv1RRYIjpaJ4MT-19">
          <mxGeometry x="-0.0864" y="-1" relative="1" as="geometry">
            <mxPoint x="1" as="offset" />
          </mxGeometry>
        </mxCell>
        <mxCell id="O3R_HScv1RRYIjpaJ4MT-15" value="f.x == x - 1 &amp;amp;&amp;amp; abs(f.y - y) == 1" style="rhombus;whiteSpace=wrap;html=1;" vertex="1" parent="1">
          <mxGeometry x="198.75" y="-3100" width="201.25" height="30" as="geometry" />
        </mxCell>
        <mxCell id="O3R_HScv1RRYIjpaJ4MT-18" value="&amp;nbsp;return 0" style="ellipse;whiteSpace=wrap;html=1;" vertex="1" parent="1">
          <mxGeometry x="390" y="-3050" width="60" height="30" as="geometry" />
        </mxCell>
        <mxCell id="O3R_HScv1RRYIjpaJ4MT-26" style="edgeStyle=orthogonalEdgeStyle;rounded=0;orthogonalLoop=1;jettySize=auto;html=1;exitX=1;exitY=0.5;exitDx=0;exitDy=0;" edge="1" parent="1" source="O3R_HScv1RRYIjpaJ4MT-23" target="O3R_HScv1RRYIjpaJ4MT-27">
          <mxGeometry relative="1" as="geometry">
            <mxPoint x="270" y="-2990" as="targetPoint" />
            <Array as="points">
              <mxPoint x="288" y="-3025" />
            </Array>
          </mxGeometry>
        </mxCell>
        <mxCell id="O3R_HScv1RRYIjpaJ4MT-28" value="True" style="edgeLabel;html=1;align=center;verticalAlign=middle;resizable=0;points=[];" vertex="1" connectable="0" parent="O3R_HScv1RRYIjpaJ4MT-26">
          <mxGeometry x="-0.5245" relative="1" as="geometry">
            <mxPoint as="offset" />
          </mxGeometry>
        </mxCell>
        <mxCell id="O3R_HScv1RRYIjpaJ4MT-33" style="edgeStyle=orthogonalEdgeStyle;rounded=0;orthogonalLoop=1;jettySize=auto;html=1;exitX=0;exitY=0.5;exitDx=0;exitDy=0;entryX=0.5;entryY=0;entryDx=0;entryDy=0;" edge="1" parent="1" source="O3R_HScv1RRYIjpaJ4MT-23" target="O3R_HScv1RRYIjpaJ4MT-32">
          <mxGeometry relative="1" as="geometry" />
        </mxCell>
        <mxCell id="O3R_HScv1RRYIjpaJ4MT-50" value="False" style="edgeLabel;html=1;align=center;verticalAlign=middle;resizable=0;points=[];" vertex="1" connectable="0" parent="O3R_HScv1RRYIjpaJ4MT-33">
          <mxGeometry x="-0.5496" y="1" relative="1" as="geometry">
            <mxPoint as="offset" />
          </mxGeometry>
        </mxCell>
        <mxCell id="O3R_HScv1RRYIjpaJ4MT-23" value="case &#39;R&#39;" style="rhombus;whiteSpace=wrap;html=1;" vertex="1" parent="1">
          <mxGeometry x="134" y="-3040" width="112.5" height="30" as="geometry" />
        </mxCell>
        <mxCell id="O3R_HScv1RRYIjpaJ4MT-29" style="edgeStyle=orthogonalEdgeStyle;rounded=0;orthogonalLoop=1;jettySize=auto;html=1;exitX=1;exitY=0.5;exitDx=0;exitDy=0;" edge="1" parent="1" source="O3R_HScv1RRYIjpaJ4MT-27">
          <mxGeometry relative="1" as="geometry">
            <mxPoint x="380" y="-2960" as="targetPoint" />
          </mxGeometry>
        </mxCell>
        <mxCell id="O3R_HScv1RRYIjpaJ4MT-51" value="True" style="edgeLabel;html=1;align=center;verticalAlign=middle;resizable=0;points=[];" vertex="1" connectable="0" parent="O3R_HScv1RRYIjpaJ4MT-29">
          <mxGeometry x="-0.5852" y="-2" relative="1" as="geometry">
            <mxPoint as="offset" />
          </mxGeometry>
        </mxCell>
        <mxCell id="O3R_HScv1RRYIjpaJ4MT-31" style="edgeStyle=orthogonalEdgeStyle;rounded=0;orthogonalLoop=1;jettySize=auto;html=1;exitX=0;exitY=0.5;exitDx=0;exitDy=0;entryX=0.5;entryY=0;entryDx=0;entryDy=0;" edge="1" parent="1" source="O3R_HScv1RRYIjpaJ4MT-27" target="O3R_HScv1RRYIjpaJ4MT-32">
          <mxGeometry relative="1" as="geometry">
            <mxPoint x="200" y="-2950" as="targetPoint" />
          </mxGeometry>
        </mxCell>
        <mxCell id="O3R_HScv1RRYIjpaJ4MT-55" value="False" style="edgeLabel;html=1;align=center;verticalAlign=middle;resizable=0;points=[];" vertex="1" connectable="0" parent="O3R_HScv1RRYIjpaJ4MT-31">
          <mxGeometry x="-0.5502" y="-1" relative="1" as="geometry">
            <mxPoint as="offset" />
          </mxGeometry>
        </mxCell>
        <mxCell id="O3R_HScv1RRYIjpaJ4MT-27" value="f.x == x || f.y == y" style="rhombus;whiteSpace=wrap;html=1;" vertex="1" parent="1">
          <mxGeometry x="215" y="-3000" width="145" height="30" as="geometry" />
        </mxCell>
        <mxCell id="O3R_HScv1RRYIjpaJ4MT-30" value="&amp;nbsp;return 1" style="ellipse;whiteSpace=wrap;html=1;" vertex="1" parent="1">
          <mxGeometry x="350" y="-2960" width="60" height="30" as="geometry" />
        </mxCell>
        <mxCell id="O3R_HScv1RRYIjpaJ4MT-34" style="edgeStyle=orthogonalEdgeStyle;rounded=0;orthogonalLoop=1;jettySize=auto;html=1;" edge="1" parent="1" source="O3R_HScv1RRYIjpaJ4MT-32">
          <mxGeometry relative="1" as="geometry">
            <mxPoint x="270" y="-2890" as="targetPoint" />
          </mxGeometry>
        </mxCell>
        <mxCell id="O3R_HScv1RRYIjpaJ4MT-52" value="True" style="edgeLabel;html=1;align=center;verticalAlign=middle;resizable=0;points=[];" vertex="1" connectable="0" parent="O3R_HScv1RRYIjpaJ4MT-34">
          <mxGeometry x="0.0965" y="-1" relative="1" as="geometry">
            <mxPoint as="offset" />
          </mxGeometry>
        </mxCell>
        <mxCell id="O3R_HScv1RRYIjpaJ4MT-36" style="edgeStyle=orthogonalEdgeStyle;rounded=0;orthogonalLoop=1;jettySize=auto;html=1;entryX=0.5;entryY=0;entryDx=0;entryDy=0;exitX=0;exitY=0.5;exitDx=0;exitDy=0;" edge="1" parent="1" source="O3R_HScv1RRYIjpaJ4MT-32" target="O3R_HScv1RRYIjpaJ4MT-45">
          <mxGeometry relative="1" as="geometry">
            <mxPoint x="110" y="-2880" as="targetPoint" />
            <Array as="points">
              <mxPoint x="116" y="-2925" />
            </Array>
          </mxGeometry>
        </mxCell>
        <mxCell id="O3R_HScv1RRYIjpaJ4MT-54" value="False" style="edgeLabel;html=1;align=center;verticalAlign=middle;resizable=0;points=[];" vertex="1" connectable="0" parent="O3R_HScv1RRYIjpaJ4MT-36">
          <mxGeometry x="0.026" y="-2" relative="1" as="geometry">
            <mxPoint as="offset" />
          </mxGeometry>
        </mxCell>
        <mxCell id="O3R_HScv1RRYIjpaJ4MT-32" value="case &#39;N&#39;" style="rhombus;whiteSpace=wrap;html=1;" vertex="1" parent="1">
          <mxGeometry x="134" y="-2940" width="112.5" height="30" as="geometry" />
        </mxCell>
        <mxCell id="O3R_HScv1RRYIjpaJ4MT-37" style="edgeStyle=orthogonalEdgeStyle;rounded=0;orthogonalLoop=1;jettySize=auto;html=1;exitX=1;exitY=0.5;exitDx=0;exitDy=0;entryX=0.5;entryY=0;entryDx=0;entryDy=0;entryPerimeter=0;" edge="1" parent="1" source="O3R_HScv1RRYIjpaJ4MT-38" target="O3R_HScv1RRYIjpaJ4MT-39">
          <mxGeometry relative="1" as="geometry">
            <mxPoint x="361.75" y="-2850" as="targetPoint" />
          </mxGeometry>
        </mxCell>
        <mxCell id="O3R_HScv1RRYIjpaJ4MT-53" value="True" style="edgeLabel;html=1;align=center;verticalAlign=middle;resizable=0;points=[];" vertex="1" connectable="0" parent="O3R_HScv1RRYIjpaJ4MT-37">
          <mxGeometry x="0.36" y="-1" relative="1" as="geometry">
            <mxPoint as="offset" />
          </mxGeometry>
        </mxCell>
        <mxCell id="O3R_HScv1RRYIjpaJ4MT-41" style="edgeStyle=orthogonalEdgeStyle;rounded=0;orthogonalLoop=1;jettySize=auto;html=1;entryX=0.5;entryY=0;entryDx=0;entryDy=0;exitX=0;exitY=0.5;exitDx=0;exitDy=0;" edge="1" parent="1" source="O3R_HScv1RRYIjpaJ4MT-38" target="O3R_HScv1RRYIjpaJ4MT-45">
          <mxGeometry relative="1" as="geometry">
            <mxPoint x="140" y="-2800" as="targetPoint" />
          </mxGeometry>
        </mxCell>
        <mxCell id="O3R_HScv1RRYIjpaJ4MT-38" value="abs(f.x - x) == 2 &amp;amp;&amp;amp; abs(f.y - y) == 1) ||&lt;div&gt;&amp;nbsp;(abs(f.x - x) == 1 &amp;amp;&amp;amp; abs(f.y - y) == 2&lt;/div&gt;" style="rhombus;whiteSpace=wrap;html=1;" vertex="1" parent="1">
          <mxGeometry x="160" y="-2890" width="222.5" height="60" as="geometry" />
        </mxCell>
        <mxCell id="O3R_HScv1RRYIjpaJ4MT-39" value="&amp;nbsp;return 2" style="ellipse;whiteSpace=wrap;html=1;" vertex="1" parent="1">
          <mxGeometry x="385" y="-2830" width="60" height="30" as="geometry" />
        </mxCell>
        <mxCell id="O3R_HScv1RRYIjpaJ4MT-42" style="edgeStyle=orthogonalEdgeStyle;rounded=0;orthogonalLoop=1;jettySize=auto;html=1;exitX=1;exitY=0.5;exitDx=0;exitDy=0;" edge="1" parent="1" source="O3R_HScv1RRYIjpaJ4MT-45" target="O3R_HScv1RRYIjpaJ4MT-48">
          <mxGeometry relative="1" as="geometry">
            <mxPoint x="196" y="-2790" as="targetPoint" />
            <Array as="points">
              <mxPoint x="214" y="-2825" />
            </Array>
          </mxGeometry>
        </mxCell>
        <mxCell id="O3R_HScv1RRYIjpaJ4MT-43" value="True" style="edgeLabel;html=1;align=center;verticalAlign=middle;resizable=0;points=[];" vertex="1" connectable="0" parent="O3R_HScv1RRYIjpaJ4MT-42">
          <mxGeometry x="-0.5245" relative="1" as="geometry">
            <mxPoint as="offset" />
          </mxGeometry>
        </mxCell>
        <mxCell id="O3R_HScv1RRYIjpaJ4MT-44" style="edgeStyle=orthogonalEdgeStyle;rounded=0;orthogonalLoop=1;jettySize=auto;html=1;exitX=0;exitY=0.5;exitDx=0;exitDy=0;endArrow=none;endFill=0;" edge="1" parent="1">
          <mxGeometry relative="1" as="geometry">
            <mxPoint x="141" y="-2730" as="targetPoint" />
            <mxPoint x="61" y="-2825" as="sourcePoint" />
            <Array as="points">
              <mxPoint x="61" y="-2824" />
              <mxPoint x="60" y="-2824" />
              <mxPoint x="60" y="-2730" />
            </Array>
          </mxGeometry>
        </mxCell>
        <mxCell id="O3R_HScv1RRYIjpaJ4MT-58" value="False" style="edgeLabel;html=1;align=center;verticalAlign=middle;resizable=0;points=[];" vertex="1" connectable="0" parent="O3R_HScv1RRYIjpaJ4MT-44">
          <mxGeometry x="-0.5409" y="-1" relative="1" as="geometry">
            <mxPoint as="offset" />
          </mxGeometry>
        </mxCell>
        <mxCell id="O3R_HScv1RRYIjpaJ4MT-45" value="case &#39;B&#39;" style="rhombus;whiteSpace=wrap;html=1;" vertex="1" parent="1">
          <mxGeometry x="60" y="-2840" width="112.5" height="30" as="geometry" />
        </mxCell>
        <mxCell id="O3R_HScv1RRYIjpaJ4MT-46" style="edgeStyle=orthogonalEdgeStyle;rounded=0;orthogonalLoop=1;jettySize=auto;html=1;exitX=1;exitY=0.5;exitDx=0;exitDy=0;entryX=0.5;entryY=0;entryDx=0;entryDy=0;" edge="1" parent="1" source="O3R_HScv1RRYIjpaJ4MT-48" target="O3R_HScv1RRYIjpaJ4MT-49">
          <mxGeometry relative="1" as="geometry">
            <mxPoint x="306" y="-2760" as="targetPoint" />
          </mxGeometry>
        </mxCell>
        <mxCell id="O3R_HScv1RRYIjpaJ4MT-56" value="True" style="edgeLabel;html=1;align=center;verticalAlign=middle;resizable=0;points=[];" vertex="1" connectable="0" parent="O3R_HScv1RRYIjpaJ4MT-46">
          <mxGeometry x="0.037" y="-2" relative="1" as="geometry">
            <mxPoint as="offset" />
          </mxGeometry>
        </mxCell>
        <mxCell id="O3R_HScv1RRYIjpaJ4MT-47" style="edgeStyle=orthogonalEdgeStyle;rounded=0;orthogonalLoop=1;jettySize=auto;html=1;exitX=0;exitY=0.5;exitDx=0;exitDy=0;entryX=0.5;entryY=0;entryDx=0;entryDy=0;" edge="1" parent="1" source="O3R_HScv1RRYIjpaJ4MT-48" target="O3R_HScv1RRYIjpaJ4MT-63">
          <mxGeometry relative="1" as="geometry">
            <mxPoint x="116" y="-2740" as="targetPoint" />
            <Array as="points">
              <mxPoint x="141" y="-2710" />
              <mxPoint x="460" y="-2710" />
              <mxPoint x="460" y="-3290" />
              <mxPoint x="640" y="-3290" />
            </Array>
          </mxGeometry>
        </mxCell>
        <mxCell id="O3R_HScv1RRYIjpaJ4MT-84" value="False" style="edgeLabel;html=1;align=center;verticalAlign=middle;resizable=0;points=[];" vertex="1" connectable="0" parent="O3R_HScv1RRYIjpaJ4MT-47">
          <mxGeometry x="-0.9619" y="2" relative="1" as="geometry">
            <mxPoint as="offset" />
          </mxGeometry>
        </mxCell>
        <mxCell id="O3R_HScv1RRYIjpaJ4MT-48" value="abs(f.x - x) == abs(f.y - y)" style="rhombus;whiteSpace=wrap;html=1;" vertex="1" parent="1">
          <mxGeometry x="141" y="-2800" width="169" height="30" as="geometry" />
        </mxCell>
        <mxCell id="O3R_HScv1RRYIjpaJ4MT-49" value="&amp;nbsp;return 3" style="ellipse;whiteSpace=wrap;html=1;" vertex="1" parent="1">
          <mxGeometry x="300" y="-2760" width="60" height="30" as="geometry" />
        </mxCell>
        <mxCell id="O3R_HScv1RRYIjpaJ4MT-59" style="edgeStyle=orthogonalEdgeStyle;rounded=0;orthogonalLoop=1;jettySize=auto;html=1;" edge="1" parent="1" source="O3R_HScv1RRYIjpaJ4MT-63">
          <mxGeometry relative="1" as="geometry">
            <mxPoint x="720" y="-3230" as="targetPoint" />
          </mxGeometry>
        </mxCell>
        <mxCell id="O3R_HScv1RRYIjpaJ4MT-60" value="True" style="edgeLabel;html=1;align=center;verticalAlign=middle;resizable=0;points=[];" vertex="1" connectable="0" parent="O3R_HScv1RRYIjpaJ4MT-59">
          <mxGeometry x="0.0965" y="-1" relative="1" as="geometry">
            <mxPoint as="offset" />
          </mxGeometry>
        </mxCell>
        <mxCell id="O3R_HScv1RRYIjpaJ4MT-61" style="edgeStyle=orthogonalEdgeStyle;rounded=0;orthogonalLoop=1;jettySize=auto;html=1;entryX=0.5;entryY=0;entryDx=0;entryDy=0;exitX=0;exitY=0.5;exitDx=0;exitDy=0;" edge="1" parent="1" source="O3R_HScv1RRYIjpaJ4MT-63" target="O3R_HScv1RRYIjpaJ4MT-73">
          <mxGeometry relative="1" as="geometry">
            <mxPoint x="560" y="-3220" as="targetPoint" />
            <Array as="points">
              <mxPoint x="566" y="-3265" />
            </Array>
          </mxGeometry>
        </mxCell>
        <mxCell id="O3R_HScv1RRYIjpaJ4MT-62" value="False" style="edgeLabel;html=1;align=center;verticalAlign=middle;resizable=0;points=[];" vertex="1" connectable="0" parent="O3R_HScv1RRYIjpaJ4MT-61">
          <mxGeometry x="0.026" y="-2" relative="1" as="geometry">
            <mxPoint as="offset" />
          </mxGeometry>
        </mxCell>
        <mxCell id="O3R_HScv1RRYIjpaJ4MT-63" value="case &#39;K&#39;" style="rhombus;whiteSpace=wrap;html=1;" vertex="1" parent="1">
          <mxGeometry x="584" y="-3280" width="112.5" height="30" as="geometry" />
        </mxCell>
        <mxCell id="O3R_HScv1RRYIjpaJ4MT-64" style="edgeStyle=orthogonalEdgeStyle;rounded=0;orthogonalLoop=1;jettySize=auto;html=1;exitX=1;exitY=0.5;exitDx=0;exitDy=0;entryX=0.5;entryY=0;entryDx=0;entryDy=0;entryPerimeter=0;" edge="1" parent="1" source="O3R_HScv1RRYIjpaJ4MT-67" target="O3R_HScv1RRYIjpaJ4MT-68">
          <mxGeometry relative="1" as="geometry">
            <mxPoint x="811.75" y="-3190" as="targetPoint" />
          </mxGeometry>
        </mxCell>
        <mxCell id="O3R_HScv1RRYIjpaJ4MT-65" value="True" style="edgeLabel;html=1;align=center;verticalAlign=middle;resizable=0;points=[];" vertex="1" connectable="0" parent="O3R_HScv1RRYIjpaJ4MT-64">
          <mxGeometry x="0.36" y="-1" relative="1" as="geometry">
            <mxPoint as="offset" />
          </mxGeometry>
        </mxCell>
        <mxCell id="O3R_HScv1RRYIjpaJ4MT-66" style="edgeStyle=orthogonalEdgeStyle;rounded=0;orthogonalLoop=1;jettySize=auto;html=1;entryX=0.5;entryY=0;entryDx=0;entryDy=0;exitX=0;exitY=0.5;exitDx=0;exitDy=0;" edge="1" parent="1" source="O3R_HScv1RRYIjpaJ4MT-67" target="O3R_HScv1RRYIjpaJ4MT-73">
          <mxGeometry relative="1" as="geometry">
            <mxPoint x="590" y="-3140" as="targetPoint" />
          </mxGeometry>
        </mxCell>
        <mxCell id="O3R_HScv1RRYIjpaJ4MT-67" value="abs(f.x - x) &amp;lt;= 1 &amp;amp;&amp;amp; abs(f.y - y) &amp;lt;= 1" style="rhombus;whiteSpace=wrap;html=1;" vertex="1" parent="1">
          <mxGeometry x="610" y="-3230" width="222.5" height="40" as="geometry" />
        </mxCell>
        <mxCell id="O3R_HScv1RRYIjpaJ4MT-68" value="&amp;nbsp;return 4" style="ellipse;whiteSpace=wrap;html=1;" vertex="1" parent="1">
          <mxGeometry x="835" y="-3170" width="60" height="30" as="geometry" />
        </mxCell>
        <mxCell id="O3R_HScv1RRYIjpaJ4MT-69" style="edgeStyle=orthogonalEdgeStyle;rounded=0;orthogonalLoop=1;jettySize=auto;html=1;exitX=1;exitY=0.5;exitDx=0;exitDy=0;" edge="1" parent="1" source="O3R_HScv1RRYIjpaJ4MT-73" target="O3R_HScv1RRYIjpaJ4MT-78">
          <mxGeometry relative="1" as="geometry">
            <mxPoint x="646" y="-3130" as="targetPoint" />
            <Array as="points">
              <mxPoint x="664" y="-3165" />
            </Array>
          </mxGeometry>
        </mxCell>
        <mxCell id="O3R_HScv1RRYIjpaJ4MT-70" value="True" style="edgeLabel;html=1;align=center;verticalAlign=middle;resizable=0;points=[];" vertex="1" connectable="0" parent="O3R_HScv1RRYIjpaJ4MT-69">
          <mxGeometry x="-0.5245" relative="1" as="geometry">
            <mxPoint as="offset" />
          </mxGeometry>
        </mxCell>
        <mxCell id="O3R_HScv1RRYIjpaJ4MT-71" style="edgeStyle=orthogonalEdgeStyle;rounded=0;orthogonalLoop=1;jettySize=auto;html=1;exitX=0;exitY=0.5;exitDx=0;exitDy=0;" edge="1" parent="1" source="O3R_HScv1RRYIjpaJ4MT-73">
          <mxGeometry relative="1" as="geometry">
            <mxPoint x="566" y="-3060" as="targetPoint" />
          </mxGeometry>
        </mxCell>
        <mxCell id="O3R_HScv1RRYIjpaJ4MT-72" value="False" style="edgeLabel;html=1;align=center;verticalAlign=middle;resizable=0;points=[];" vertex="1" connectable="0" parent="O3R_HScv1RRYIjpaJ4MT-71">
          <mxGeometry x="-0.5409" y="-1" relative="1" as="geometry">
            <mxPoint as="offset" />
          </mxGeometry>
        </mxCell>
        <mxCell id="O3R_HScv1RRYIjpaJ4MT-73" value="case &#39;Q&#39;" style="rhombus;whiteSpace=wrap;html=1;" vertex="1" parent="1">
          <mxGeometry x="510" y="-3180" width="112.5" height="30" as="geometry" />
        </mxCell>
        <mxCell id="O3R_HScv1RRYIjpaJ4MT-74" style="edgeStyle=orthogonalEdgeStyle;rounded=0;orthogonalLoop=1;jettySize=auto;html=1;exitX=1;exitY=0.5;exitDx=0;exitDy=0;entryX=0.5;entryY=0;entryDx=0;entryDy=0;" edge="1" parent="1" source="O3R_HScv1RRYIjpaJ4MT-78" target="O3R_HScv1RRYIjpaJ4MT-79">
          <mxGeometry relative="1" as="geometry">
            <mxPoint x="756" y="-3100" as="targetPoint" />
          </mxGeometry>
        </mxCell>
        <mxCell id="O3R_HScv1RRYIjpaJ4MT-75" value="True" style="edgeLabel;html=1;align=center;verticalAlign=middle;resizable=0;points=[];" vertex="1" connectable="0" parent="O3R_HScv1RRYIjpaJ4MT-74">
          <mxGeometry x="0.037" y="-2" relative="1" as="geometry">
            <mxPoint as="offset" />
          </mxGeometry>
        </mxCell>
        <mxCell id="O3R_HScv1RRYIjpaJ4MT-76" style="edgeStyle=orthogonalEdgeStyle;rounded=0;orthogonalLoop=1;jettySize=auto;html=1;exitX=0;exitY=0.5;exitDx=0;exitDy=0;" edge="1" parent="1" source="O3R_HScv1RRYIjpaJ4MT-78">
          <mxGeometry relative="1" as="geometry">
            <mxPoint x="566" y="-3060" as="targetPoint" />
          </mxGeometry>
        </mxCell>
        <mxCell id="O3R_HScv1RRYIjpaJ4MT-77" value="False" style="edgeLabel;html=1;align=center;verticalAlign=middle;resizable=0;points=[];" vertex="1" connectable="0" parent="O3R_HScv1RRYIjpaJ4MT-76">
          <mxGeometry x="0.3291" y="-2" relative="1" as="geometry">
            <mxPoint x="6" y="-32" as="offset" />
          </mxGeometry>
        </mxCell>
        <mxCell id="O3R_HScv1RRYIjpaJ4MT-78" value="f.x == x || f.y == y || abs(f.x - x)&amp;nbsp;&lt;div&gt;== abs(f.y - y)&lt;/div&gt;" style="rhombus;whiteSpace=wrap;html=1;" vertex="1" parent="1">
          <mxGeometry x="591" y="-3150" width="199" height="60" as="geometry" />
        </mxCell>
        <mxCell id="O3R_HScv1RRYIjpaJ4MT-79" value="&amp;nbsp;return 5" style="ellipse;whiteSpace=wrap;html=1;" vertex="1" parent="1">
          <mxGeometry x="795" y="-3100" width="60" height="30" as="geometry" />
        </mxCell>
        <mxCell id="O3R_HScv1RRYIjpaJ4MT-82" style="edgeStyle=orthogonalEdgeStyle;rounded=0;orthogonalLoop=1;jettySize=auto;html=1;" edge="1" parent="1" source="O3R_HScv1RRYIjpaJ4MT-81">
          <mxGeometry relative="1" as="geometry">
            <mxPoint x="566.25" y="-3000" as="targetPoint" />
          </mxGeometry>
        </mxCell>
        <mxCell id="O3R_HScv1RRYIjpaJ4MT-81" value="default" style="rhombus;whiteSpace=wrap;html=1;" vertex="1" parent="1">
          <mxGeometry x="510" y="-3060" width="112.5" height="30" as="geometry" />
        </mxCell>
        <mxCell id="O3R_HScv1RRYIjpaJ4MT-83" value="&amp;nbsp;return -1" style="ellipse;whiteSpace=wrap;html=1;" vertex="1" parent="1">
          <mxGeometry x="536.25" y="-3000" width="60" height="30" as="geometry" />
        </mxCell>
      </root>
    </mxGraphModel>
  </diagram>
</mxfile>
